PathFileType	4	(X/Y/Z)	C:\Users\Basilio\Documents\Thesis Gigler\squatting_fais\c3dfiles\075\SLS_front_pre3\markers_experimental.trc
DataRate	CameraRate	NumFrames	NumMarkers	Units	OrigDataRate	OrigDataStartFrame	OrigNumFrames
200.000000	200.000000	4	61	mm	200.000000	499	1331
Frame#	Time	FHD			LBHD			C7			T10			CLAV			LSHO			LUUPA			LMUPA			LDUPA			LLEP			LMEP			LRAD			LUL			LRFIN			RSHO			RUPA1			RMUPA			RDUPA			RLEP			RMEP			RRAD			RUL			RUFIN			RASI			USACR			LSACR			RSACR			LTHI1			LTHI2			LTHI3			LTHI4			LLFC			LMFC			LTIB1			LTIB2			LTIB3			LTIB4			LLMAL			LMMAL			LHEE			LMT1			LMT2			LMT5			RTHI			RTHI2			RTHI3			RTHI4			RLFC			RMFC			RTIB1			RTIB2			RTIB3			RTIB4			RLMAL			RMMAL			RHEE			RMT1			RMT2			RMT5			LASI			RBHD			
		X1	Y1	Z1	X2	Y2	Z2	X3	Y3	Z3	X4	Y4	Z4	X5	Y5	Z5	X6	Y6	Z6	X7	Y7	Z7	X8	Y8	Z8	X9	Y9	Z9	X10	Y10	Z10	X11	Y11	Z11	X12	Y12	Z12	X13	Y13	Z13	X14	Y14	Z14	X15	Y15	Z15	X16	Y16	Z16	X17	Y17	Z17	X18	Y18	Z18	X19	Y19	Z19	X20	Y20	Z20	X21	Y21	Z21	X22	Y22	Z22	X23	Y23	Z23	X24	Y24	Z24	X25	Y25	Z25	X26	Y26	Z26	X27	Y27	Z27	X28	Y28	Z28	X29	Y29	Z29	X30	Y30	Z30	X31	Y31	Z31	X32	Y32	Z32	X33	Y33	Z33	X34	Y34	Z34	X35	Y35	Z35	X36	Y36	Z36	X37	Y37	Z37	X38	Y38	Z38	X39	Y39	Z39	X40	Y40	Z40	X41	Y41	Z41	X42	Y42	Z42	X43	Y43	Z43	X44	Y44	Z44	X45	Y45	Z45	X46	Y46	Z46	X47	Y47	Z47	X48	Y48	Z48	X49	Y49	Z49	X50	Y50	Z50	X51	Y51	Z51	X52	Y52	Z52	X53	Y53	Z53	X54	Y54	Z54	X55	Y55	Z55	X56	Y56	Z56	X57	Y57	Z57	X58	Y58	Z58	X59	Y59	Z59	X60	Y60	Z60	X61	Y61	Z61	

500	2.495	-245.6230773925782	1589.793701171875	-789.8536376953127	-394.6498413085939	1474.422729492188	-858.0112915039065	-432.2935485839845	1369.893188476563	-797.5977783203127	-514.7213134765626	1058.670166015625	-786.8291015625002	-299.0439147949219	1291.3447265625	-786.408142089844	-315.3117065429688	1340.427612304688	-923.4036254882815	-165.3569946289063	1260.76953125	-1010.493286132813	-137.6768341064453	1281.713623046875	-974.3038330078127	-96.8307800292969	1251.23486328125	-1005.353271484375	-14.90272998809815	1239.895629882813	-990.1998291015627	-35.77040100097657	1169.307495117188	-947.8098754882815	nan	nan	nan	219.1140136718751	1253.871948242188	-878.975524902344	220.1311492919922	1275.484252929688	-772.4279785156252	-335.8060607910157	1341.405883789063	-653.9458618164064	-197.3325805664063	1273.591552734375	-544.3120727539064	-163.4257507324219	1288.364990234375	-576.5963745117189	-128.0084686279297	1261.733520507813	-534.7770996093751	-57.44149017333986	1254.185180664063	-540.0086059570314	-55.11684417724611	1178.850952148438	-559.9978637695314	154.5602111816407	1263.532348632813	-722.2544555664064	176.568588256836	1275.440551757813	-648.4431762695314	230.9418945312501	1298.223022460938	-748.7449340820314	-374.1290893554688	873.6481933593752	-669.9960327148439	-527.6234130859376	939.609313964844	-795.415954589844	-535.7251586914064	909.997497558594	-824.3770141601565	-535.3129882812501	907.026062011719	-767.6772460937501	-295.6440734863282	705.5883178710939	-1007.386413574219	-218.8018341064454	669.3753662109376	-1005.231140136719	-190.5023956298828	700.3870239257814	-978.857604980469	-202.4464416503907	611.4755859375001	-1004.066589355469	-143.4476318359375	521.1508789062501	-998.6909179687502	-110.0411911010742	521.7761840820314	-873.5037841796877	-36.79144668579102	439.1040954589845	-966.3363037109377	-69.27856445312501	380.2345581054688	-1019.981567382813	-31.91934394836426	391.2886657714845	-997.680847167969	-1.288190960884094	315.9825744628907	-970.5352172851565	-4.871750354766847	154.3624877929688	-997.6801757812502	11.39626026153565	178.7888946533203	-913.655700683594	-51.22427368164064	109.6476364135742	-957.543395996094	150.968734741211	144.7623291015625	-907.854187011719	160.1830749511719	145.3361053466797	-956.4583740234377	133.5514373779297	111.857292175293	-1007.21044921875	-369.4214172363282	676.3993530273439	-611.3581542968751	-308.6752624511719	650.3288574218751	-610.1518554687501	-283.3202514648438	672.0278930664064	-617.3771362304689	-288.9291076660157	568.3187866210939	-619.0401000976564	-230.1184387207032	435.9618225097657	-657.2357177734376	-190.4973297119141	451.3850708007814	-776.7144775390627	-212.2339324951172	303.3552856445313	-749.7891845703126	-288.8407592773438	239.1461486816407	-706.4481201171876	-255.9876403808594	227.9671630859376	-740.2755737304689	-282.9706726074219	200.7565460205079	-786.4044189453127	-392.5808105468751	108.7818679809571	-769.2569580078127	-352.4642028808594	139.2677001953125	-845.8265380859377	-445.0751953125001	94.83329010009767	-835.4737548828127	-241.2666778564454	56.84204483032228	-822.3688964843752	-246.9320678710938	54.4513282775879	-780.3126220703127	-289.9544677734376	33.5743751525879	-733.3851928710939	-373.7156982421876	889.9929809570315	-920.5588378906252	nan	nan	nan	
501	2.5	-245.2940216064454	1588.517700195313	-789.5130004882815	-394.3521118164064	1473.017944335938	-857.6374511718752	-432.1117553710939	1368.749145507813	-797.5039062500002	-514.9797973632814	1057.631713867188	-786.9006958007815	-299.2659606933594	1290.156005859375	-786.4831542968752	-315.2497253417969	1339.276977539063	-923.1965942382815	-164.5449981689453	1259.491333007813	-1009.986999511719	-137.3857574462891	1280.89111328125	-974.1074218750002	-96.37988281250003	1250.75390625	-1005.594543457031	-15.33554935455323	1238.963134765625	-989.970397949219	-35.51240539550782	1168.40478515625	-947.528991699219	nan	nan	nan	219.588607788086	1253.02392578125	-878.809020996094	221.1175079345704	1274.274047851563	-772.3244628906252	-335.6156005859376	1340.09423828125	-653.8594360351564	-197.1200714111329	1272.41455078125	-544.4836425781251	-163.2971801757813	1287.097534179688	-576.6549072265626	-127.8112564086914	1260.482055664063	-534.7718505859376	-57.23112106323244	1253.0888671875	-540.0272216796876	-54.85934829711915	1177.600830078125	-560.1414184570314	155.0624694824219	1262.761840820313	-722.3306884765626	176.8064880371094	1274.466918945313	-648.4660644531251	231.2165527343751	1297.364868164063	-748.7462158203126	-374.6184692382813	872.541442871094	-669.9758911132814	-528.0704345703126	938.3027954101565	-795.4346313476565	-536.2000732421876	908.9418945312502	-824.3659667968752	-535.8818969726564	905.8064575195315	-767.6602783203126	-296.0169677734376	704.6986083984376	-1007.6318359375	-219.1436767578126	668.7102661132814	-1005.248352050781	-190.79736328125	699.6177978515626	-978.9200439453127	-202.4683074951172	610.8946533203126	-1004.147583007813	-143.3987731933594	520.4937133789064	-998.8812255859377	-110.0817565917969	521.0863647460939	-873.6651611328127	-36.73100662231446	438.6435546875001	-966.5067138671877	-69.25048065185548	379.7968750000001	-1020.265686035156	-31.75660133361817	390.8372497558595	-997.854919433594	-1.050333380699158	315.6390075683594	-970.6424560546877	-4.465958118438722	153.9956359863282	-997.8151855468752	11.78729724884033	178.3699493408203	-913.9141235351565	-50.78987121582033	109.2124862670899	-957.7539672851565	151.3360290527344	144.2776184082032	-908.101989746094	160.5924835205078	144.9857482910157	-956.7462158203127	133.8424530029297	111.6047973632813	-1007.582885742188	-369.4296264648438	675.5946655273439	-611.5626831054689	-308.5103759765626	649.6677246093751	-610.2577514648439	-283.3000183105469	671.5229492187501	-617.5160522460939	-288.6109313964844	567.7364501953126	-618.9910278320314	-229.4539642333985	435.644744873047	-657.4511718750001	-189.9888305664063	451.1557617187501	-776.8952636718752	-211.8151855468751	303.0396423339844	-749.9196166992189	-288.4223022460938	239.0514678955079	-706.5471191406251	-255.6802062988282	227.7725677490235	-740.3405761718751	-282.4614257812501	200.4890899658204	-786.5300292968752	-392.5290527343751	108.7929458618164	-769.289001464844	-352.3695373535157	139.3353881835938	-845.9245605468752	-445.029266357422	94.81166839599611	-835.4758300781252	-241.2267761230469	56.83322906494142	-822.362243652344	-246.9373168945313	54.42895889282228	-780.3542480468752	-289.9231262207032	33.59041976928712	-733.3939819335939	-374.2115478515626	888.897888183594	-920.7995605468752	nan	nan	nan	
502	2.505	-245.0389404296876	1587.281005859375	-789.2593994140627	-394.281951904297	1471.934692382813	-857.5339965820315	-431.9493713378907	1367.731689453125	-797.418640136719	-515.3085327148439	1056.572021484375	-786.893249511719	-299.0208740234376	1288.741455078125	-786.2881469726565	-315.1280212402344	1338.19384765625	-923.1047973632815	-164.255615234375	1258.804077148438	-1010.032531738281	-137.2806396484375	1279.94140625	-973.9804687500002	-96.34351348876956	1249.905029296875	-1005.455688476563	-15.072096824646	1238.089233398438	-989.8242797851565	-35.33610153198243	1167.464111328125	-947.4013671875002	nan	nan	nan	219.8295288085938	1252.298095703125	-878.8297119140627	220.7550964355469	1273.600219726563	-772.331237792969	-335.5584716796876	1338.910278320313	-653.9432373046876	-196.943588256836	1270.932250976563	-544.5927124023439	-163.1471099853516	1285.9052734375	-576.7885131835939	-127.7010345458985	1259.261596679688	-534.9109497070314	-57.08290481567384	1251.958251953125	-540.2828979492189	-54.66556930541994	1176.523071289063	-560.3320922851564	155.109359741211	1262.181396484375	-722.4286499023439	177.004150390625	1273.440795898438	-648.5161132812501	231.6094055175782	1296.475830078125	-748.6235351562501	-375.0133666992188	871.4986572265627	-669.9837036132814	-528.5344238281251	937.418395996094	-795.551940917969	-536.6665039062501	907.7459716796877	-824.3170166015627	-536.1840820312501	904.806335449219	-767.7265014648439	-295.6560974121094	703.8059082031251	-1007.471618652344	-219.5588531494141	667.9340209960939	-1005.285095214844	-191.0054626464844	698.9467773437501	-979.0115356445315	-202.6508941650391	610.0639038085939	-1004.188293457031	-143.3515319824219	519.9490966796876	-999.0352172851565	-110.1230392456055	520.5049438476564	-873.8118286132815	-36.65578842163087	438.1936340332032	-966.7112426757815	-69.7073440551758	378.9539184570313	-1020.274963378906	-31.9889259338379	389.9524536132814	-997.9392089843752	-0.7934257388114931	315.2321472167969	-970.8005371093752	-4.240719318389893	153.6904449462891	-997.9606933593752	11.55037784576416	177.6014251708985	-914.6186523437502	-50.38544082641603	108.7149887084961	-957.965270996094	151.817123413086	143.9802703857422	-908.3660278320315	161.1043853759766	144.5825500488282	-956.8830566406252	134.2257385253907	111.2638549804688	-1007.859741210938	-369.3625793457032	674.7991333007814	-611.7154541015626	-308.4095764160157	649.0130004882814	-610.4068603515626	-283.3134155273438	670.9820556640626	-617.7347412109376	-288.1428527832032	567.1714477539064	-619.0873413085939	-228.7682800292969	435.2655029296876	-657.6610107421876	-189.5069732666016	450.830291748047	-777.1892700195315	-211.4166564941407	302.7088623046876	-750.0969238281251	-288.0868225097657	238.8889312744141	-706.7709960937501	-255.3666992187501	227.5306854248047	-740.4762573242189	-282.2795410156251	200.349594116211	-786.5869750976565	-392.470916748047	108.8258132934571	-769.2443847656252	-351.7017211914063	139.1123352050782	-845.760192871094	-445.0643615722657	94.85168457031251	-835.5239868164065	-241.2376708984376	56.80834960937501	-822.428405761719	-246.9033813476563	54.41695022583009	-780.3897094726565	-289.9310913085938	33.59143829345704	-733.4149169921876	-374.2501831054688	888.1531372070315	-920.9749755859377	nan	nan	nan	
503	2.51	-244.6951141357422	1585.94140625	-788.8865356445315	-393.9598083496095	1470.66748046875	-857.2015380859377	-431.6256713867189	1366.550903320313	-797.2761840820315	-515.4285278320314	1055.710815429688	-786.9522705078127	-299.0885925292969	1287.545043945313	-786.3453369140627	-314.9404602050782	1337.1650390625	-922.8929443359377	-164.1425476074219	1258.112060546875	-1010.091491699219	-137.1412658691407	1278.978149414063	-973.7895507812502	-96.27462005615237	1248.84375	-1004.937561035156	-14.28775787353516	1237.346313476563	-989.749694824219	-35.01351547241212	1166.70703125	-947.5103149414065	nan	nan	nan	220.0893096923829	1251.622192382813	-878.8052368164065	221.0773010253907	1272.873779296875	-772.1728515625002	-335.2913208007813	1337.611694335938	-653.7641601562501	-196.7349090576172	1269.907104492188	-544.5043334960939	-162.992919921875	1284.77490234375	-576.7411499023439	-127.5015335083008	1258.026000976563	-535.1004638671876	-56.98289108276369	1250.680297851563	-540.4891967773439	-54.45534515380861	1175.22705078125	-560.5073852539064	155.2481231689453	1260.798583984375	-722.3566894531251	177.2272491455078	1272.406005859375	-648.5175170898439	231.9360809326172	1295.556518554688	-748.5090332031251	-375.4039916992188	870.4844360351565	-670.0709228515626	-529.0767822265626	936.2085571289065	-795.6277465820315	-537.0725097656251	906.783142089844	-824.3089599609377	-536.6356201171876	903.7589111328127	-767.7675781250001	-295.9982910156251	703.0617675781251	-1007.557983398438	-219.6520080566407	667.1658325195314	-1005.444580078125	-191.3206329345703	698.3132934570314	-979.0730590820315	-202.8358154296876	609.2429199218751	-1004.444519042969	-143.3374938964844	519.3470458984376	-999.1287841796877	-110.078353881836	519.9486083984376	-873.8887329101565	-36.60575866699219	437.7342224121095	-966.8786621093752	-69.56221008300783	378.4786987304688	-1020.494018554688	-31.84049987792969	389.4367675781251	-998.1166992187502	-0.5864268541336061	314.7716674804688	-970.9185791015627	-3.718010902404786	153.2784576416016	-998.2860107421877	11.89974212646485	177.122802734375	-914.8051757812502	-49.97778701782228	108.3391876220703	-958.2178344726565	152.155990600586	143.5931243896485	-908.5302734375002	161.5831146240235	144.3167266845703	-957.1462402343752	134.5135650634766	110.9753112792969	-1008.049682617188	-369.4399414062501	673.8012084960939	-611.8530273437501	-308.2117919921876	648.3885498046876	-610.7399902343751	-283.2935485839844	670.3342285156251	-618.0809326171876	-287.9145507812501	566.4031982421876	-619.2974853515626	-228.1457672119141	434.9099426269532	-657.8234252929689	-188.9308776855469	450.396209716797	-777.3857421875002	-211.0571746826172	302.4140625000001	-750.3073730468751	-287.6319274902344	238.6842498779297	-706.9301147460939	-254.800765991211	227.2235260009766	-740.5565795898439	-281.9929504394532	200.2640380859376	-786.7730102539065	-392.430877685547	108.8090744018555	-769.3028564453127	-352.3185119628907	139.197265625	-846.066345214844	-445.1156005859376	94.86576080322267	-835.5139770507815	-241.2457580566407	56.73656082153322	-822.4463500976565	-246.8956909179688	54.40065765380861	-780.4428710937502	-289.9370422363282	33.6198844909668	-733.4007568359376	-375.1002502441407	886.6741943359377	-920.8042602539065	nan	nan	nan	
